# xmcd
#
# Track frame offsets:
#	150
#	21111
#	43524
#	62296
#	80488
#	95864
#	115548
#	137278
#	157728
#	178094
#	193600
#	214173
#
# Disc length: 3087 seconds
#
# Revision: 0
# Processed by: cddbd v1.5.2PL0 Copyright (c) Steve Scherf et al.
# Submitted via: audiograbber 1.83.01
#
DISCID=920c0d0c
DTITLE=Ariel Lopez - Mi Sueño
DYEAR=2013
DGENRE=Melodico
TTITLE0=Si No Te Hubieras Ido
TTITLE1=Yo Te Amo
TTITLE2=Te Conozco
TTITLE3=Por Que Te Tengo Que Olvidar
TTITLE4=La Nave Del Olvido
TTITLE5=Fuiste Tu
TTITLE6=Un Siglo Sin Ti
TTITLE7=Quieres Ser Mi Amante
TTITLE8=Y Me Dijeron
TTITLE9=Mi Vida Eres Tu
TTITLE10=Bailar Pegados
TTITLE11=Me Dedique A Perderte
EXTD=
EXTT0=
EXTT1=
EXTT2=
EXTT3=
EXTT4=
EXTT5=
EXTT6=
EXTT7=
EXTT8=
EXTT9=
EXTT10=
EXTT11=
PLAYORDER=
